<svg id="planeta-completo" xmlns="http://www.w3.org/2000/svg" viewBox="3274 2209 100 100">
  <defs>
    <style>
      .cls-1 {
        fill: none;
      }

      .cls-2 {
        fill: #ff9e15;
      }

      .cls-3 {
        fill: #ec8b01;
      }

      .cls-3, .cls-4, .cls-5, .cls-6, .cls-7 {
        fill-rule: evenodd;
      }

      .cls-4 {
        fill: #ffdaa4;
      }

      .cls-5 {
        fill: #ea5153;
      }

      .cls-6 {
        fill: #ed8a15;
      }

      .cls-7 {
        fill: #221f33;
      }
    </style>
  </defs>
  <rect id="Rectangle_941" data-name="Rectangle 941" class="cls-1" width="100" height="100" transform="translate(3274 2209)"/>
  <g id="Group_414" data-name="Group 414" transform="translate(-49.345 120)">
    <g id="planeta-completo-2" data-name="planeta-completo" transform="translate(3337.345 2089)">
      <ellipse id="Ellipse_7_copy" data-name="Ellipse 7 copy" class="cls-2" cx="35.457" cy="35.457" rx="35.457" ry="35.457" transform="translate(0 29.085)"/>
      <path id="Path_866" data-name="Path 866" class="cls-3" d="M365.9,279s-1.734,1.9-7.092,4.255c-8.45,3.71-21.274,8.51-21.274,8.51s-.63-.3.709-1.418c1.452-1.206,5.214-2.766,5.673-4.255.322-1.045-1.418-.709-1.418-.709s-11.526-2.02-18.438,2.127c-5.273,3.164-6.382,12.765-6.382,12.765s-.252,1.948,1.418,1.418c7.23-2.294,9.554-.306,12.056,2.127,2.036,1.98,4.179,5.39,6.382,7.091,5.853,4.523,9.105,1.791,12.056.709,1.081-.4,2.127,2.127,2.127,2.127s-.945,1.261.709,1.418c1.064.1,1.981-.809,3.546-.709.845.054.2,4.872.709,5.673,1.707,2.681,4.911.53,10.637-.709,2.2-.475,4.816-.257,7.091-.709,1.756-.35,2.311-1.724,3.546-2.127a7.607,7.607,0,0,1,3.546,0s2.314-12.012-2.127-21.984C375.37,285.624,365.9,279,365.9,279ZM312,316.585s2.021.584,5.673,4.964c1.919,2.3,2.636,8.51,5.673,9.219,3.337.78,3.178-2.19,4.255-1.418,3.333,2.387,5.336-2.252,6.382-2.127,3.366.4,3.383,3.45,4.964,3.546,5.98.362,5.989,2.1,11.346,2.127,1.758.008,3.57,1.308,4.964.709,1.031-.443,1.64-2.051,2.837-2.127,1.43-.091,2.187.78,3.546.709,1.479-.076,2.17-2.025,3.546-2.127,2.065-.154,4.636,1.321,6.382,1.418,3.659.2,2.127,0,2.127,0l-5.673,4.964s.6.459-2.837.709c-3.845.28-6.633,2.3-10.637,2.837-4.621.618-9.628.365-13.474.709-5.172.464-7.091,1.418-7.091,1.418s-8.51-4.139-12.765-8.51C312.845,325.009,312,316.585,312,316.585Z" transform="translate(-311.291 -244.242)"/>
      <path id="Shape_10_copy" data-name="Shape 10 copy" class="cls-4" d="M358.521,273.127s-10.725-1.794-18.438,0a24.413,24.413,0,0,0-12.055,7.091l2.127-3.546a42.112,42.112,0,0,0-12.765,12.055c-4.225,6.416-6.154,15.847-6.362,16.913v-.009l1.957-10.854a35.481,35.481,0,0,1,45.56-21.664Z" transform="translate(-311.008 -241.915)"/>
      <path id="Path_867" data-name="Path 867" class="cls-5" d="M350,232.123A19.1,19.1,0,0,1,358.723,230c2.3.092,4.295,3.2,6.975,3.546,1.312.17,2.173-.818,3.488-.709,4.386.364,8.52,2.561,11.625,2.837a6.914,6.914,0,0,0,4.647-1.418s-1.7,4.68-5.815,6.382c-2.444,1.011-5.083-.2-8.138.709-3.3.98-5.018,4.58-8.138,5.673-2.141.75-3.869-.194-5.815,0a17.863,17.863,0,0,0-6.394,2.127Z" transform="translate(-322.343 -229.986)"/>
      <path id="Path_868" data-name="Path 868" class="cls-6" d="M345.8,279.937c2.323-.388,6,.094,6.382,0,.7-.174,1.9,2.105-.709,2.127-1.948.016-3.72-.709-4.964-.709-2,0-4.032.085-5.673,0a8.253,8.253,0,0,1-2.837-.709C337.74,280.143,342.464,280.493,345.8,279.937Z" transform="translate(-318.849 -244.47)"/>
      <path id="Rounded_Rectangle_1" data-name="Rounded Rectangle 1" class="cls-7" d="M348.114,230a1.09,1.09,0,0,1,1.115,1.064l4.863,34.039a1.115,1.115,0,0,1-2.229,0L347,231.064A1.089,1.089,0,0,1,348.114,230Z" transform="translate(-321.471 -229.99)"/>
    </g>
  </g>
</svg>
