<svg id="planeta-inativo" xmlns="http://www.w3.org/2000/svg" viewBox="3589 2209 100 100">
  <defs>
    <style>
      .cls-1 {
        fill: none;
      }

      .cls-2 {
        fill: #a3b8cc;
      }

      .cls-3 {
        fill: #8fa1b3;
      }

      .cls-3, .cls-4 {
        fill-rule: evenodd;
      }

      .cls-4 {
        fill: #cee0f2;
      }
    </style>
  </defs>
  <rect id="Rectangle_943" data-name="Rectangle 943" class="cls-1" width="100" height="100" transform="translate(3589 2209)"/>
  <g id="Group_418" data-name="Group 418" transform="translate(265.655 120)">
    <g id="planeta-inativo-2" data-name="planeta-inativo" transform="translate(3337.345 2118.075)">
      <ellipse id="Ellipse_7_copy" data-name="Ellipse 7 copy" class="cls-2" cx="35.457" cy="35.457" rx="35.457" ry="35.457"/>
      <path id="Path_869" data-name="Path 869" class="cls-3" d="M975.9,355s-1.734,1.9-7.091,4.255c-8.45,3.71-21.275,8.51-21.275,8.51s-.63-.3.709-1.418c1.452-1.206,5.214-2.766,5.673-4.255.322-1.045-1.418-.709-1.418-.709s-11.526-2.02-18.438,2.127c-5.273,3.164-6.382,12.765-6.382,12.765s-.252,1.948,1.418,1.418c7.233-2.294,9.553-.306,12.055,2.128,2.036,1.98,4.179,5.39,6.382,7.091,5.853,4.523,9.105,1.791,12.055.709,1.082-.4,2.128,2.127,2.128,2.127s-.945,1.261.709,1.418c1.064.1,1.981-.809,3.546-.709.844.054.2,4.872.709,5.673,1.707,2.68,4.911.53,10.637-.709,2.2-.475,4.815-.257,7.091-.709,1.759-.35,2.312-1.724,3.546-2.127a7.607,7.607,0,0,1,3.546,0s2.312-12.012-2.127-21.984C985.37,361.624,975.9,355,975.9,355ZM922,392.585s2.021.584,5.673,4.964c1.919,2.3,2.635,8.51,5.673,9.219,3.337.78,3.178-2.19,4.255-1.418,3.333,2.387,5.336-2.252,6.382-2.127,3.366.4,3.383,3.45,4.964,3.546,5.979.362,5.989,2.1,11.347,2.127,1.758.008,3.57,1.308,4.964.709,1.031-.443,1.64-2.051,2.837-2.127,1.431-.091,2.187.78,3.546.709,1.479-.076,2.17-2.025,3.546-2.127,2.065-.154,4.638,1.321,6.382,1.418,3.659.2,2.128,0,2.128,0l-5.673,4.964s.6.459-2.837.709c-3.845.28-6.633,2.3-10.637,2.837-4.622.618-9.628.365-13.474.709-5.172.464-7.092,1.418-7.092,1.418s-8.51-4.139-12.765-8.51C922.845,401.009,922,392.585,922,392.585Z" transform="translate(-921.291 -349.327)"/>
      <path id="Shape_10_copy" data-name="Shape 10 copy" class="cls-4" d="M968.521,349.128s-10.725-1.794-18.438,0a24.413,24.413,0,0,0-12.055,7.091l2.127-3.546a42.115,42.115,0,0,0-12.765,12.056c-4.225,6.416-6.154,15.847-6.362,16.912v-.008l1.957-10.854a35.482,35.482,0,0,1,45.56-21.664Z" transform="translate(-921.008 -347)"/>
    </g>
  </g>
</svg>
