<svg xmlns="http://www.w3.org/2000/svg" width="138" height="22" viewBox="0 0 138 22">
  <metadata><?xpacket begin="﻿" id="W5M0MpCehiHzreSzNTczkc9d"?>
<x:xmpmeta xmlns:x="adobe:ns:meta/" x:xmptk="Adobe XMP Core 5.6-c138 79.159824, 2016/09/14-01:09:01        ">
   <rdf:RDF xmlns:rdf="http://www.w3.org/1999/02/22-rdf-syntax-ns#">
      <rdf:Description rdf:about=""/>
   </rdf:RDF>
</x:xmpmeta><?xpacket end="w"?></metadata>
<defs>
    <style>
      .cls-1 {
        fill: #ff9500;
        fill-rule: evenodd;
      }
    </style>
  </defs>
  <path id="Shape_1_copy" data-name="Shape 1 copy" class="cls-1" d="M157.009,41.585a1.009,1.009,0,0,1-.991-0.971V21.457a1.009,1.009,0,0,1,.991-0.971,0.988,0.988,0,0,1,.991.971V40.614A0.988,0.988,0,0,1,157.009,41.585ZM151.553,23a1.126,1.126,0,0,1-1.241-1.224,1.242,1.242,0,1,1,2.483,0A1.127,1.127,0,0,1,151.553,23Zm-9.422,16.828a6.084,6.084,0,0,0,3.742-1.307,1,1,0,0,1,.613-0.213,0.91,0.91,0,0,1,.935.881,0.929,0.929,0,0,1-.419.76,7.614,7.614,0,0,1-4.871,1.642c-4.161,0-6.645-2.341-6.645-7.325s2.484-7.3,6.645-7.3a6.206,6.206,0,0,1,4.967,2.1,0.874,0.874,0,0,1,.226.577,0.891,0.891,0,0,1-.935.881,0.981,0.981,0,0,1-.774-0.365,4.225,4.225,0,0,0-3.484-1.429c-2.967,0-4.548,1.793-4.548,5.532C137.583,38.062,139.164,39.825,142.131,39.825Zm-10.674,1.611a0.974,0.974,0,0,1-1-.939V39.406a5.192,5.192,0,0,1-4.6,2.182c-3.406,0-5.559-1.545-5.559-4.333,0-2.666,2.153-4.272,5.623-4.272h4.531V32.165c0-2.06-1.446-3.333-3.792-3.333a4.566,4.566,0,0,0-3.727,1.545,1.07,1.07,0,0,1-.836.424,0.886,0.886,0,0,1-.771-1.394c0.9-1.333,2.635-2.393,5.334-2.393,3.728,0,5.784,2.06,5.784,5.151V40.5A0.974,0.974,0,0,1,131.457,41.437Zm-1-6.756H125.93c-2.089,0-3.534.818-3.534,2.575,0,1.576,1.156,2.575,3.663,2.575,2.249,0,4.4-1.3,4.4-3.878V34.68Zm-3.5-9.857a0.646,0.646,0,0,1-.967.061,0.574,0.574,0,0,1-.1-0.912l2.871-3.283a0.811,0.811,0,0,1,1.225,0,0.693,0.693,0,0,1,.1,1.155Zm-8.381-2.515c-2.535,0-3.542,1.431-3.542,3.411v1.8H118a0.915,0.915,0,1,1,0,1.827h-2.957V40.611a1.042,1.042,0,0,1-2.079,0V29.343h-1.1a0.915,0.915,0,1,1,0-1.827h1.1v-1.8c0-2.741,1.657-5.238,5.621-5.238A0.915,0.915,0,1,1,118.583,22.309ZM106.822,41.436a1.6,1.6,0,0,1-1.58-1.6c-0.805,1.3-2.117,1.75-3.906,1.75-2.921,0-4.859-1.84-4.859-4.556,0-2.806,2.236-4.254,4.829-4.254h3.906V32.234c0-1.358-.984-2.263-2.713-2.263a4.893,4.893,0,0,0-2.981,1.146A1.42,1.42,0,0,1,97.222,30a1.5,1.5,0,0,1,.388-1,6.222,6.222,0,0,1,4.889-1.931c3.7,0,5.9,1.84,5.9,5.038v7.723A1.6,1.6,0,0,1,106.822,41.436Zm-1.61-6.124h-3.488c-1.312,0-2.027.633-2.027,1.72,0,1.146.805,1.84,2.474,1.84a2.829,2.829,0,0,0,3.041-2.715V35.311Zm-11.9,6.124a1.528,1.528,0,0,1-1.61-1.569V32.928c0-1.72-.686-2.9-2.623-2.9-2.236,0-2.981,1.327-2.981,3.107v6.728a1.61,1.61,0,0,1-3.22,0V28.886a1.61,1.61,0,1,1,3.22,0,4.4,4.4,0,0,1,3.816-1.81c4.054,0,5.008,2.625,5.008,5.249v7.542A1.562,1.562,0,0,1,93.316,41.436ZM78.887,24.371a1.743,1.743,0,0,1-1.908-1.9,1.924,1.924,0,1,1,3.846,0A1.752,1.752,0,0,1,78.887,24.371ZM73.67,35.492H66.306c0,2.172,1.52,3.168,3.488,3.168a5.06,5.06,0,0,0,2.951-.935,1.594,1.594,0,0,1,.954-0.332,1.408,1.408,0,0,1,1.4,1.418,1.514,1.514,0,0,1-.507,1.116,6.97,6.97,0,0,1-4.8,1.659c-4.144,0-6.708-2.263-6.708-7.3,0-4.616,2.385-7.21,6.439-7.21,5.038,0,5.962,3.922,5.962,6C75.488,34.2,75.488,35.492,73.67,35.492Zm-4.144-5.642a2.924,2.924,0,0,0-3.13,2.927h5.9A2.686,2.686,0,0,0,69.526,29.851Zm-8.169.332a3.035,3.035,0,0,0-3.22,3.349v6.275a1.61,1.61,0,1,1-3.22,0V28.886a1.61,1.61,0,1,1,3.22,0v0.151a3.705,3.705,0,0,1,3.22-1.931A1.539,1.539,0,0,1,61.357,30.183Zm-9.421.03H50.595v7.3A1.1,1.1,0,0,0,51.728,38.6a1.418,1.418,0,0,1,0,2.836,3.969,3.969,0,0,1-4.293-4.1v-7.12H46.749a1.358,1.358,0,0,1,0-2.715h0.686V24.963a1.58,1.58,0,1,1,3.16,0V27.5h1.342A1.358,1.358,0,0,1,51.936,30.213ZM20,33.775V20H33.724a8.209,8.209,0,0,1,8.193,8.224V42H28.193A8.209,8.209,0,0,1,20,33.775Zm20.483-4.507c0-5.418-8.913-7.108-5.445-6.121a55.2,55.2,0,0,0-5.618-1.091V34.144c0,2.709,3.565,2.773,5.533,3.333,2.55,0.726,5.53,1.848,5.53,1.848V29.268Zm-7.925,9.945c2.108,0.267,5.2.912,6.289,1.144a27.228,27.228,0,0,0-4.722-1.751c-2-.493-5.931-0.559-5.931-3.3V24.79c-0.732-.269-1.23-0.473-1.23-0.473V35.749C26.964,39.219,30.556,38.96,32.558,39.214Zm-1.087-6.466s1.89,0.358,3.823.918a8.345,8.345,0,0,1,3.346,1.96v1.028a9.376,9.376,0,0,0-3.443-2,35.854,35.854,0,0,0-3.726-.879V32.748Zm0-2.673V29.047a36.521,36.521,0,0,1,3.892,1.028A8.692,8.692,0,0,1,38.64,32.13v1.028A11.676,11.676,0,0,0,35.2,31.07,27.387,27.387,0,0,0,31.471,30.075Zm0-3.907V25.14a26.131,26.131,0,0,1,3.891,1.18A9.5,9.5,0,0,1,38.64,28.43v1.028a16.326,16.326,0,0,0-3.318-2.13A23.081,23.081,0,0,0,31.471,26.168Zm47.417,1.088a1.613,1.613,0,0,1,1.61,1.629V39.807a1.61,1.61,0,1,1-3.22,0V28.886A1.613,1.613,0,0,1,78.887,27.256Zm72.666-.24a0.98,0.98,0,0,1,.994.992V40.593a0.994,0.994,0,0,1-1.987,0V28.008A0.98,0.98,0,0,1,151.553,27.017Z" transform="translate(-20 -20)"/>
</svg>
